<svg xmlns="http://www.w3.org/2000/svg" xmlns:xlink="http://www.w3.org/1999/xlink" width="294" zoomAndPan="magnify" viewBox="0 0 220.5 204.749995" height="273" preserveAspectRatio="xMidYMid meet" version="1.0"><defs><g/><clipPath id="d304b74157"><path d="M 35.425781 32 L 185.425781 32 L 185.425781 120 L 35.425781 120 Z M 35.425781 32 " clip-rule="nonzero"/></clipPath></defs><path fill="#d49a42" d="M 149.832031 43.683594 C 145.558594 40.085938 142.339844 39.847656 139.3125 43.683594 C 142.867188 48.386719 149.449219 47.378906 152.1875 43.636719 Z M 149.832031 43.683594 " fill-opacity="1" fill-rule="evenodd"/><path fill="#d49a42" d="M 143.492188 49.058594 C 138.976562 45.75 135.761719 45.75 132.972656 49.777344 C 136.863281 54.242188 143.300781 52.753906 145.796875 48.820312 L 143.445312 49.011719 Z M 143.492188 49.058594 " fill-opacity="1" fill-rule="evenodd"/><path fill="#d49a42" d="M 138.882812 55.777344 C 133.597656 53.953125 130.523438 54.914062 129.082031 59.617188 C 134.128906 62.6875 139.84375 59.375 141.042969 54.863281 Z M 138.882812 55.777344 " fill-opacity="1" fill-rule="evenodd"/><path fill="#d49a42" d="M 136.625 63.550781 C 131.148438 62.398438 128.21875 63.742188 127.355469 68.539062 C 132.734375 70.988281 138.019531 67.003906 138.640625 62.398438 Z M 136.625 63.550781 " fill-opacity="1" fill-rule="evenodd"/><path fill="#d49a42" d="M 135.136719 73.148438 C 129.660156 71.996094 126.730469 73.339844 125.867188 78.136719 C 131.246094 80.582031 136.527344 76.601562 137.152344 71.996094 Z M 135.136719 73.148438 " fill-opacity="1" fill-rule="evenodd"/><path fill="#d49a42" d="M 132.972656 82.070312 C 127.402344 82.503906 124.953125 84.613281 125.480469 89.460938 C 131.339844 90.324219 135.28125 85 134.609375 80.390625 Z M 132.972656 82.070312 " fill-opacity="1" fill-rule="evenodd"/><path fill="#d49a42" d="M 113.523438 80.441406 C 118.851562 82.070312 120.824219 84.613281 119.238281 89.269531 C 113.328125 88.835938 110.640625 82.839844 112.273438 78.472656 Z M 113.523438 80.441406 " fill-opacity="1" fill-rule="evenodd"/><path fill="#d49a42" d="M 115.15625 68.492188 C 120.246094 70.746094 121.878906 73.578125 119.71875 77.945312 C 113.90625 76.792969 111.984375 70.460938 114.144531 66.332031 L 115.105469 68.445312 Z M 115.15625 68.492188 " fill-opacity="1" fill-rule="evenodd"/><path fill="#d49a42" d="M 118.230469 56.785156 C 123.078125 59.519531 124.425781 62.496094 121.878906 66.667969 C 116.210938 64.941406 114.914062 58.464844 117.507812 54.578125 L 118.277344 56.785156 Z M 118.230469 56.785156 " fill-opacity="1" fill-rule="evenodd"/><path fill="#d49a42" d="M 122.984375 47.425781 C 127.257812 51.027344 128.027344 54.144531 124.761719 57.792969 C 119.527344 55.058594 119.382812 48.433594 122.648438 45.125 Z M 122.984375 47.425781 " fill-opacity="1" fill-rule="evenodd"/><path fill="#d49a42" d="M 130.765625 37.589844 C 133.648438 42.339844 133.359375 45.605469 129.082031 47.957031 C 125 43.683594 127.019531 37.398438 131.195312 35.289062 Z M 130.765625 37.589844 " fill-opacity="1" fill-rule="evenodd"/><path fill="#d49a42" d="M 141.332031 31.449219 C 142.386719 36.917969 140.996094 39.847656 136.191406 40.613281 C 133.839844 35.191406 137.875 30.011719 142.53125 29.433594 Z M 141.332031 31.449219 " fill-opacity="1" fill-rule="evenodd"/><path fill="#d49a42" d="M 92.820312 58.414062 C 94.359375 54.097656 92.726562 51.21875 88.019531 49.730469 L 88.882812 51.074219 C 87.96875 55.25 89.3125 57.695312 92.820312 58.414062 Z M 92.820312 58.414062 " fill-opacity="1" fill-rule="evenodd"/><path fill="#d49a42" d="M 98.007812 63.40625 C 100.84375 59.855469 100.3125 56.59375 96.328125 53.617188 L 96.710938 55.152344 C 94.5 58.800781 94.933594 61.535156 98.007812 63.40625 Z M 98.007812 63.40625 " fill-opacity="1" fill-rule="evenodd"/><path fill="#d49a42" d="M 101.800781 70.9375 C 105.355469 68.058594 105.5 64.75 102.234375 61.054688 L 102.28125 62.636719 C 99.351562 65.710938 99.207031 68.492188 101.800781 70.988281 Z M 101.800781 70.9375 " fill-opacity="1" fill-rule="evenodd"/><path fill="#d49a42" d="M 103.578125 77.898438 C 107.710938 76.027344 108.71875 72.859375 106.507812 68.445312 L 106.125 69.980469 C 102.523438 72.234375 101.660156 74.875 103.53125 77.898438 Z M 103.578125 77.898438 " fill-opacity="1" fill-rule="evenodd"/><path fill="#d49a42" d="M 105.164062 86.101562 C 109.535156 84.804688 110.929688 81.785156 109.390625 77.128906 L 108.816406 78.570312 C 104.925781 80.296875 103.722656 82.792969 105.164062 86.101562 Z M 105.164062 86.101562 " fill-opacity="1" fill-rule="evenodd"/><path fill="#d49a42" d="M 105.5 94.5 C 110.015625 93.683594 111.746094 90.898438 110.6875 86.054688 L 109.96875 87.445312 C 105.933594 88.742188 104.445312 91.09375 105.5 94.5 Z M 105.5 94.5 " fill-opacity="1" fill-rule="evenodd"/><path fill="#d49a42" d="M 100.84375 94.308594 C 96.277344 94.738281 93.878906 92.484375 93.589844 87.542969 L 94.644531 88.691406 C 98.921875 88.835938 100.9375 90.707031 100.84375 94.308594 Z M 100.84375 94.308594 " fill-opacity="1" fill-rule="evenodd"/><path fill="#d49a42" d="M 100.503906 86.4375 C 96.136719 87.683594 93.300781 85.910156 92.148438 81.113281 L 93.398438 82.023438 C 97.625 81.398438 99.976562 82.839844 100.503906 86.4375 Z M 100.503906 86.4375 " fill-opacity="1" fill-rule="evenodd"/><path fill="#d49a42" d="M 99.6875 78.664062 C 95.460938 80.441406 92.484375 79 90.753906 74.394531 L 92.101562 75.160156 C 96.183594 74.011719 98.726562 75.210938 99.6875 78.664062 Z M 99.6875 78.664062 " fill-opacity="1" fill-rule="evenodd"/><path fill="#d49a42" d="M 98.054688 72.332031 C 93.828125 74.105469 90.851562 72.667969 89.121094 68.058594 L 90.46875 68.828125 C 94.550781 67.675781 97.09375 68.875 98.054688 72.332031 Z M 98.054688 72.332031 " fill-opacity="1" fill-rule="evenodd"/><path fill="#d49a42" d="M 95.316406 64.894531 C 92.003906 68.011719 88.691406 67.722656 85.425781 64.03125 L 86.960938 64.269531 C 90.417969 61.773438 93.15625 61.964844 95.269531 64.894531 Z M 95.316406 64.894531 " fill-opacity="1" fill-rule="evenodd"/><path fill="#d49a42" d="M 90.417969 60.238281 C 87.394531 63.644531 84.078125 63.695312 80.476562 60.335938 L 82.0625 60.429688 C 85.230469 57.601562 88.019531 57.550781 90.417969 60.238281 Z M 90.417969 60.238281 " fill-opacity="1" fill-rule="evenodd"/><path fill="#88c431" d="M 146.757812 52.800781 C 153.964844 65.230469 153.820312 80.632812 146.375 92.914062 L 155.117188 95.121094 C 157.277344 90.757812 158.71875 86.199219 159.535156 81.542969 C 164.914062 82.167969 172.503906 80.679688 182.253906 77.03125 C 172.648438 76.265625 165.300781 74.394531 160.253906 71.371094 C 160.0625 65.996094 159.054688 60.621094 157.132812 55.488281 C 163.859375 52.515625 169.957031 47.523438 175.386719 40.46875 C 171.0625 43.347656 164.289062 45.316406 155.117188 46.324219 C 152.042969 49.972656 151.464844 50.355469 146.757812 52.800781 Z M 146.757812 52.800781 " fill-opacity="1" fill-rule="evenodd"/><path fill="#88c431" d="M 82.109375 101.601562 C 68.515625 87.78125 66.546875 66.285156 77.308594 50.210938 C 88.113281 34.089844 108.71875 27.753906 126.683594 35 C 129.324219 32.121094 131.4375 29.960938 133.023438 28.523438 C 128.84375 26.507812 124.570312 25.164062 120.148438 24.347656 C 120.199219 17.726562 118.515625 10.191406 115.203125 1.75 C 114.144531 12.734375 112.464844 19.980469 110.160156 23.582031 C 104.78125 23.722656 99.496094 24.730469 94.453125 26.601562 C 90.324219 17.824219 85.375 11.777344 79.660156 8.417969 C 85.039062 21.039062 87.058594 28.523438 85.617188 30.875 C 81.292969 33.511719 77.308594 36.871094 73.898438 40.902344 C 66.644531 36.007812 59.34375 33.367188 51.898438 32.984375 C 60.640625 38.789062 66.066406 44.261719 68.085938 49.25 C 65.539062 53.859375 63.808594 58.800781 62.847656 63.886719 C 53.820312 63.453125 46.375 64.703125 40.46875 67.722656 C 50.601562 68.730469 57.804688 70.699219 62.03125 73.578125 C 62.082031 78.617188 62.898438 83.65625 64.53125 88.5 C 58.140625 92.050781 52.523438 97.1875 47.574219 103.855469 C 58.238281 99.152344 65.203125 96.992188 68.421875 97.328125 C 69.621094 99.488281 71.0625 101.601562 72.601562 103.566406 Z M 82.109375 101.601562 " fill-opacity="1" fill-rule="evenodd"/><g clip-path="url(#d304b74157)"><path fill="#d49a42" d="M 120.773438 97.472656 C 115.492188 98.335938 110.160156 99.585938 104.539062 100.878906 C 104.058594 75.066406 98.679688 61.007812 88.738281 57.121094 C 87.199219 52.609375 84.269531 50.882812 80.042969 51.9375 C 81.535156 55.679688 84.269531 57.601562 88.257812 57.792969 C 101.753906 62.207031 102.476562 94.5 101.851562 101.503906 C 84.222656 105.726562 63.859375 110.621094 35.472656 109.566406 C 107.757812 135.957031 112.800781 99.007812 185.472656 113.308594 C 160.398438 96.609375 142.53125 94.402344 124.234375 96.898438 C 123.222656 65.804688 129.226562 46.804688 142.246094 39.941406 C 147.144531 40.085938 150.84375 37.542969 153.339844 32.359375 C 147.769531 31.113281 143.925781 33.367188 141.765625 39.125 C 125.289062 47.332031 121.445312 65.949219 120.871094 97.425781 Z M 120.773438 97.472656 " fill-opacity="1" fill-rule="evenodd"/></g><path fill="#d49a42" d="M 173.703125 123.242188 C 137.058594 100.449219 123.417969 125.589844 77.402344 124.441406 C 122.839844 140.660156 132.972656 114.84375 173.703125 123.242188 Z M 173.703125 123.242188 " fill-opacity="1" fill-rule="evenodd"/><g fill="#d49a42" fill-opacity="1"><g transform="translate(24.125613, 158.948929)"><g><path d="M 8.3125 0.359375 C 7.25 0.359375 6.050781 0.25 4.71875 0.03125 C 3.382812 -0.175781 2.390625 -0.453125 1.734375 -0.796875 L 1.734375 -5.921875 L 3.609375 -5.921875 L 4.796875 -2.859375 C 5.179688 -2.347656 5.648438 -2.007812 6.203125 -1.84375 C 6.765625 -1.675781 7.476562 -1.59375 8.34375 -1.59375 C 9.257812 -1.59375 9.988281 -1.832031 10.53125 -2.3125 C 11.070312 -2.800781 11.34375 -3.492188 11.34375 -4.390625 C 11.34375 -5.441406 10.378906 -6.472656 8.453125 -7.484375 C 6.742188 -8.398438 5.453125 -9.132812 4.578125 -9.6875 C 3.710938 -10.25 3.007812 -10.910156 2.46875 -11.671875 C 1.925781 -12.429688 1.65625 -13.335938 1.65625 -14.390625 C 1.65625 -15.453125 1.960938 -16.390625 2.578125 -17.203125 C 3.203125 -18.023438 4.035156 -18.65625 5.078125 -19.09375 C 6.117188 -19.539062 7.234375 -19.765625 8.421875 -19.765625 C 9.328125 -19.765625 10.441406 -19.675781 11.765625 -19.5 C 13.097656 -19.320312 14.023438 -19.109375 14.546875 -18.859375 L 14.546875 -14.671875 L 12.453125 -14.671875 L 11.28125 -17.328125 C 11.082031 -17.503906 10.71875 -17.644531 10.1875 -17.75 C 9.664062 -17.863281 9.222656 -17.921875 8.859375 -17.921875 C 8.015625 -17.921875 7.3125 -17.742188 6.75 -17.390625 C 6.195312 -17.035156 5.921875 -16.523438 5.921875 -15.859375 C 5.921875 -15.179688 6.117188 -14.582031 6.515625 -14.0625 C 6.910156 -13.539062 7.445312 -13.054688 8.125 -12.609375 C 8.800781 -12.171875 9.773438 -11.617188 11.046875 -10.953125 C 12.585938 -10.160156 13.769531 -9.320312 14.59375 -8.4375 C 15.414062 -7.5625 15.828125 -6.523438 15.828125 -5.328125 C 15.828125 -4.128906 15.488281 -3.097656 14.8125 -2.234375 C 14.144531 -1.378906 13.242188 -0.734375 12.109375 -0.296875 C 10.972656 0.140625 9.707031 0.359375 8.3125 0.359375 Z M 8.3125 0.359375 "/></g></g></g><g fill="#d49a42" fill-opacity="1"><g transform="translate(40.73306, 158.948929)"><g><path d="M 0.671875 -11.828125 L 0.671875 -13.375 L 5.46875 -14.515625 L 6.140625 -14.3125 L 6.140625 -5.53125 C 6.140625 -4.351562 6.273438 -3.488281 6.546875 -2.9375 C 6.816406 -2.394531 7.328125 -2.125 8.078125 -2.125 C 8.492188 -2.125 8.914062 -2.175781 9.34375 -2.28125 C 9.78125 -2.394531 10.109375 -2.554688 10.328125 -2.765625 L 10.328125 -10.75 L 8.734375 -11.625 L 8.734375 -13.375 L 14 -14.515625 L 14.703125 -14.3125 L 14.703125 -1.703125 L 16.140625 -1.703125 L 16.140625 -0.359375 C 15.847656 -0.148438 15.3125 0.0195312 14.53125 0.15625 C 13.757812 0.289062 13.109375 0.359375 12.578125 0.359375 C 12.046875 0.359375 11.609375 0.242188 11.265625 0.015625 C 10.929688 -0.210938 10.765625 -0.5625 10.765625 -1.03125 L 10.765625 -1.53125 C 10.359375 -1.03125 9.734375 -0.585938 8.890625 -0.203125 C 8.046875 0.171875 7.285156 0.359375 6.609375 0.359375 C 4.835938 0.359375 3.601562 -0.0625 2.90625 -0.90625 C 2.207031 -1.75 1.859375 -3.09375 1.859375 -4.9375 L 1.859375 -10.953125 Z M 0.671875 -11.828125 "/></g></g></g><g fill="#d49a42" fill-opacity="1"><g transform="translate(57.521301, 158.948929)"><g><path d="M 10.359375 -14.515625 C 12.265625 -14.515625 13.695312 -13.894531 14.65625 -12.65625 C 15.613281 -11.414062 16.09375 -9.703125 16.09375 -7.515625 C 16.09375 -6.085938 15.738281 -4.773438 15.03125 -3.578125 C 14.320312 -2.378906 13.363281 -1.429688 12.15625 -0.734375 C 10.957031 -0.0351562 9.632812 0.3125 8.1875 0.3125 C 7.976562 0.3125 7.691406 0.285156 7.328125 0.234375 C 6.972656 0.179688 6.769531 0.15625 6.71875 0.15625 L 6.875 2.21875 L 6.875 4.34375 L 9.5625 4.703125 L 9.5625 6.453125 L 0.78125 6.453125 L 0.78125 4.703125 L 2.421875 4.34375 L 2.421875 -10.328125 L 0.71875 -11.546875 L 0.71875 -13.125 L 5.390625 -14.515625 L 6.28125 -14.28125 L 6.28125 -12.65625 C 6.53125 -13.15625 7.082031 -13.585938 7.9375 -13.953125 C 8.789062 -14.328125 9.597656 -14.515625 10.359375 -14.515625 Z M 8.546875 -12.21875 C 8.234375 -12.21875 7.910156 -12.125 7.578125 -11.9375 C 7.242188 -11.75 7.007812 -11.550781 6.875 -11.34375 L 6.875 -2.796875 C 6.988281 -2.492188 7.269531 -2.269531 7.71875 -2.125 C 8.164062 -1.976562 8.597656 -1.90625 9.015625 -1.90625 C 9.890625 -1.90625 10.554688 -2.382812 11.015625 -3.34375 C 11.472656 -4.3125 11.703125 -5.460938 11.703125 -6.796875 C 11.703125 -8.359375 11.4375 -9.648438 10.90625 -10.671875 C 10.382812 -11.703125 9.597656 -12.21875 8.546875 -12.21875 Z M 8.546875 -12.21875 "/></g></g></g><g fill="#d49a42" fill-opacity="1"><g transform="translate(74.541994, 158.948929)"><g><path d="M 10.359375 -14.515625 C 12.265625 -14.515625 13.695312 -13.894531 14.65625 -12.65625 C 15.613281 -11.414062 16.09375 -9.703125 16.09375 -7.515625 C 16.09375 -6.085938 15.738281 -4.773438 15.03125 -3.578125 C 14.320312 -2.378906 13.363281 -1.429688 12.15625 -0.734375 C 10.957031 -0.0351562 9.632812 0.3125 8.1875 0.3125 C 7.976562 0.3125 7.691406 0.285156 7.328125 0.234375 C 6.972656 0.179688 6.769531 0.15625 6.71875 0.15625 L 6.875 2.21875 L 6.875 4.34375 L 9.5625 4.703125 L 9.5625 6.453125 L 0.78125 6.453125 L 0.78125 4.703125 L 2.421875 4.34375 L 2.421875 -10.328125 L 0.71875 -11.546875 L 0.71875 -13.125 L 5.390625 -14.515625 L 6.28125 -14.28125 L 6.28125 -12.65625 C 6.53125 -13.15625 7.082031 -13.585938 7.9375 -13.953125 C 8.789062 -14.328125 9.597656 -14.515625 10.359375 -14.515625 Z M 8.546875 -12.21875 C 8.234375 -12.21875 7.910156 -12.125 7.578125 -11.9375 C 7.242188 -11.75 7.007812 -11.550781 6.875 -11.34375 L 6.875 -2.796875 C 6.988281 -2.492188 7.269531 -2.269531 7.71875 -2.125 C 8.164062 -1.976562 8.597656 -1.90625 9.015625 -1.90625 C 9.890625 -1.90625 10.554688 -2.382812 11.015625 -3.34375 C 11.472656 -4.3125 11.703125 -5.460938 11.703125 -6.796875 C 11.703125 -8.359375 11.4375 -9.648438 10.90625 -10.671875 C 10.382812 -11.703125 9.597656 -12.21875 8.546875 -12.21875 Z M 8.546875 -12.21875 "/></g></g></g><g fill="#d49a42" fill-opacity="1"><g transform="translate(91.562687, 158.948929)"><g><path d="M 2.375 -2.046875 L 2.375 -17.453125 L 0.671875 -18.1875 L 0.671875 -19.9375 L 6.09375 -20.5625 L 6.84375 -20.328125 L 6.84375 -2.09375 L 9.046875 -1.703125 L 9.046875 0 L 0.875 0 L 0.875 -1.703125 Z M 2.375 -2.046875 "/></g></g></g><g fill="#d49a42" fill-opacity="1"><g transform="translate(100.834964, 158.948929)"><g><path d="M 1.859375 3.28125 C 2.222656 3.363281 2.53125 3.421875 2.78125 3.453125 C 3.03125 3.492188 3.34375 3.503906 3.71875 3.484375 C 4.488281 3.484375 5.132812 3.160156 5.65625 2.515625 C 6.1875 1.867188 6.582031 1.03125 6.84375 0 L 6.125 0 L 1.15625 -11.515625 L 0.046875 -11.859375 L 0.046875 -14.109375 L 7.4375 -14.109375 L 7.4375 -11.859375 L 5.984375 -11.546875 L 8.5 -4.796875 L 8.671875 -3.515625 L 9.0625 -4.796875 L 11.109375 -11.578125 L 9.375 -11.859375 L 9.375 -14.109375 L 15.78125 -14.109375 L 15.78125 -11.859375 L 14.546875 -11.59375 C 14.023438 -10.300781 13.203125 -8.25 12.078125 -5.4375 C 10.960938 -2.625 10.140625 -0.578125 9.609375 0.703125 C 9.210938 1.765625 8.820312 2.660156 8.4375 3.390625 C 8.0625 4.128906 7.660156 4.75 7.234375 5.25 C 6.765625 5.78125 6.257812 6.175781 5.71875 6.4375 C 5.175781 6.707031 4.550781 6.84375 3.84375 6.84375 C 3.4375 6.84375 3.023438 6.820312 2.609375 6.78125 C 2.191406 6.75 1.929688 6.703125 1.828125 6.640625 Z M 1.859375 3.28125 "/></g></g></g><g fill="#d49a42" fill-opacity="1"><g transform="translate(116.383455, 158.948929)"><g><path d="M 11.953125 -19.765625 C 13.429688 -19.765625 15.039062 -19.539062 16.78125 -19.09375 C 16.78125 -19.09375 16.957031 -19.046875 17.3125 -18.953125 L 17.046875 -14.046875 L 14.40625 -14.046875 L 13.484375 -16.640625 C 13.359375 -16.835938 13.109375 -17.019531 12.734375 -17.1875 C 12.367188 -17.351562 11.710938 -17.4375 10.765625 -17.4375 C 9.710938 -17.4375 8.816406 -17.113281 8.078125 -16.46875 C 7.335938 -15.832031 6.78125 -14.972656 6.40625 -13.890625 C 6.03125 -12.804688 5.84375 -11.601562 5.84375 -10.28125 C 5.84375 -8.832031 6.039062 -7.457031 6.4375 -6.15625 C 6.84375 -4.851562 7.4375 -3.800781 8.21875 -3 C 9.007812 -2.207031 9.953125 -1.8125 11.046875 -1.8125 C 11.828125 -1.8125 12.484375 -1.882812 13.015625 -2.03125 C 13.546875 -2.175781 13.898438 -2.4375 14.078125 -2.8125 L 15.109375 -5.34375 L 17.3125 -5.34375 L 17.3125 -0.859375 C 17.1875 -0.859375 16.785156 -0.757812 16.109375 -0.5625 C 15.203125 -0.289062 14.335938 -0.0703125 13.515625 0.09375 C 12.703125 0.269531 11.78125 0.359375 10.75 0.359375 C 8.78125 0.359375 7.046875 -0.0234375 5.546875 -0.796875 C 4.054688 -1.578125 2.898438 -2.6875 2.078125 -4.125 C 1.265625 -5.5625 0.859375 -7.234375 0.859375 -9.140625 C 0.859375 -11.117188 1.347656 -12.914062 2.328125 -14.53125 C 3.304688 -16.15625 4.644531 -17.429688 6.34375 -18.359375 C 8.039062 -19.296875 9.910156 -19.765625 11.953125 -19.765625 Z M 11.953125 -19.765625 "/></g></g></g><g fill="#d49a42" fill-opacity="1"><g transform="translate(134.979656, 158.948929)"><g><path d="M 2.5625 -2.0625 L 2.5625 -17.453125 L 0.859375 -18.1875 L 0.859375 -19.9375 L 6.296875 -20.5625 L 7.03125 -20.328125 L 7.03125 -14.125 L 6.765625 -12.84375 C 8.003906 -13.957031 9.5625 -14.515625 11.4375 -14.515625 C 12.625 -14.515625 13.523438 -14.25 14.140625 -13.71875 C 14.753906 -13.195312 15.160156 -12.46875 15.359375 -11.53125 C 15.554688 -10.59375 15.644531 -9.382812 15.625 -7.90625 L 15.625 -2.0625 L 17.359375 -1.703125 L 17.359375 0 L 9.34375 -0.03125 L 9.34375 -1.703125 L 11.1875 -2.0625 L 11.1875 -7.28125 C 11.1875 -8.351562 11.140625 -9.1875 11.046875 -9.78125 C 10.953125 -10.382812 10.734375 -10.863281 10.390625 -11.21875 C 10.054688 -11.570312 9.535156 -11.75 8.828125 -11.75 C 8.109375 -11.75 7.507812 -11.5625 7.03125 -11.1875 L 7.03125 -2.046875 L 8.265625 -1.703125 L 8.265625 0 L 0.75 0 L 0.75 -1.703125 Z M 2.5625 -2.0625 "/></g></g></g><g fill="#d49a42" fill-opacity="1"><g transform="translate(152.955988, 158.948929)"><g><path d="M 7.953125 -14.515625 C 9.921875 -14.515625 11.375 -14.101562 12.3125 -13.28125 C 13.257812 -12.46875 13.734375 -11.148438 13.734375 -9.328125 L 13.734375 -1.703125 L 15.390625 -1.703125 L 15.390625 -0.359375 C 15.046875 -0.117188 14.566406 0.0546875 13.953125 0.171875 C 13.347656 0.296875 12.742188 0.359375 12.140625 0.359375 C 11.503906 0.359375 10.976562 0.234375 10.5625 -0.015625 C 10.144531 -0.265625 9.910156 -0.617188 9.859375 -1.078125 C 8.847656 -0.117188 7.628906 0.359375 6.203125 0.359375 C 4.617188 0.359375 3.332031 0.00390625 2.34375 -0.703125 C 1.363281 -1.421875 0.875 -2.414062 0.875 -3.6875 C 0.875 -4.820312 1.269531 -5.773438 2.0625 -6.546875 C 2.851562 -7.328125 3.890625 -7.90625 5.171875 -8.28125 C 6.460938 -8.664062 7.828125 -8.859375 9.265625 -8.859375 L 9.265625 -9.015625 C 9.253906 -10.148438 9.050781 -10.945312 8.65625 -11.40625 C 8.269531 -11.875 7.582031 -12.109375 6.59375 -12.109375 C 5.863281 -12.109375 5.097656 -12.003906 4.296875 -11.796875 C 3.492188 -11.597656 2.867188 -11.34375 2.421875 -11.03125 L 1.578125 -12.96875 C 2.191406 -13.46875 3.113281 -13.847656 4.34375 -14.109375 C 5.582031 -14.378906 6.785156 -14.515625 7.953125 -14.515625 Z M 9.265625 -6.921875 C 8.148438 -6.921875 7.222656 -6.695312 6.484375 -6.25 C 5.753906 -5.800781 5.390625 -5.128906 5.390625 -4.234375 C 5.390625 -3.523438 5.566406 -2.984375 5.921875 -2.609375 C 6.273438 -2.242188 6.796875 -2.0625 7.484375 -2.0625 C 8.242188 -2.0625 8.835938 -2.242188 9.265625 -2.609375 Z M 9.265625 -6.921875 "/></g></g></g><g fill="#d49a42" fill-opacity="1"><g transform="translate(168.426991, 158.948929)"><g><path d="M 5.015625 -21.90625 C 5.835938 -21.90625 6.472656 -21.691406 6.921875 -21.265625 C 7.367188 -20.847656 7.59375 -20.269531 7.59375 -19.53125 C 7.59375 -18.695312 7.285156 -18.015625 6.671875 -17.484375 C 6.066406 -16.960938 5.347656 -16.703125 4.515625 -16.703125 C 3.796875 -16.703125 3.1875 -16.925781 2.6875 -17.375 C 2.1875 -17.820312 1.9375 -18.394531 1.9375 -19.09375 C 1.9375 -19.601562 2.085938 -20.070312 2.390625 -20.5 C 2.691406 -20.9375 3.078125 -21.28125 3.546875 -21.53125 C 4.023438 -21.78125 4.515625 -21.90625 5.015625 -21.90625 Z M 7.15625 -14.203125 L 7.15625 -2.046875 L 8.96875 -1.703125 L 8.96875 0 L 1 0 L 1 -1.703125 L 2.6875 -2.0625 L 2.6875 -9.921875 L 1.078125 -11.71875 L 1.078125 -12.90625 L 6.0625 -14.515625 Z M 7.15625 -14.203125 "/></g></g></g><g fill="#d49a42" fill-opacity="1"><g transform="translate(177.854232, 158.948929)"><g><path d="M 2.796875 -2.046875 L 2.796875 -10.328125 L 1.078125 -11.546875 L 1.078125 -13.125 L 5.765625 -14.515625 L 6.71875 -14.28125 L 6.71875 -12.390625 C 7.375 -13.046875 8.1875 -13.5625 9.15625 -13.9375 C 10.125 -14.320312 11.066406 -14.515625 11.984375 -14.515625 C 13.515625 -14.515625 14.585938 -14.039062 15.203125 -13.09375 C 15.828125 -12.144531 16.140625 -10.722656 16.140625 -8.828125 L 16.140625 -2.046875 L 17.90625 -1.703125 L 17.90625 0 L 9.859375 0 L 9.859375 -1.703125 L 11.671875 -2.0625 L 11.671875 -8.265625 C 11.671875 -9.191406 11.609375 -9.882812 11.484375 -10.34375 C 11.367188 -10.800781 11.132812 -11.125 10.78125 -11.3125 C 10.425781 -11.5 9.890625 -11.59375 9.171875 -11.59375 C 8.941406 -11.59375 8.601562 -11.523438 8.15625 -11.390625 C 7.707031 -11.265625 7.40625 -11.144531 7.25 -11.03125 L 7.25 -2.0625 L 8.8125 -1.703125 L 8.8125 0 L 1.21875 0 L 1.21875 -1.703125 Z M 2.796875 -2.046875 "/></g></g></g><g fill="#88c431" fill-opacity="1"><g transform="translate(74.43249, 194.812956)"><g><path d="M 4.621094 -0.851562 L 4.621094 -5.410156 L 6.019531 -5.410156 C 7.023438 -5.410156 7.628906 -4.894531 7.628906 -2.949219 C 7.628906 -1.003906 7.023438 -0.488281 6.019531 -0.488281 L 4.984375 -0.488281 C 4.710938 -0.488281 4.621094 -0.578125 4.621094 -0.851562 Z M 0.941406 0 L 6.492188 0 C 8.40625 0 10.0625 -1.035156 10.0625 -2.949219 C 10.0625 -4.53125 8.421875 -5.410156 7.128906 -5.609375 L 7.128906 -5.699219 C 8.34375 -6.019531 9.699219 -6.765625 9.699219 -8.238281 C 9.699219 -9.757812 8.101562 -10.820312 6.292969 -10.820312 L 0.941406 -10.820312 L 0.941406 -10.335938 L 2.007812 -10.335938 C 2.28125 -10.335938 2.371094 -10.246094 2.371094 -9.972656 L 2.371094 -0.851562 C 2.371094 -0.578125 2.28125 -0.488281 2.007812 -0.488281 L 0.941406 -0.488281 Z M 4.621094 -5.898438 L 4.621094 -9.972656 C 4.621094 -10.246094 4.710938 -10.335938 4.984375 -10.335938 L 6.109375 -10.335938 C 6.914062 -10.335938 7.417969 -9.574219 7.417969 -8.238281 C 7.417969 -6.839844 7.1875 -5.898438 6.019531 -5.898438 Z M 4.621094 -5.898438 "/></g></g></g><g fill="#88c431" fill-opacity="1"><g transform="translate(89.815259, 194.812956)"><g><path d="M 0.941406 0 L 9.605469 0 L 9.699219 -4.195312 L 9.210938 -4.195312 C 9.210938 -4.195312 9.089844 -3.207031 8.890625 -2.644531 C 8.601562 -1.824219 7.886719 -0.488281 6.640625 -0.488281 L 4.984375 -0.488281 C 4.710938 -0.488281 4.621094 -0.578125 4.621094 -0.851562 L 4.621094 -5.230469 L 5.394531 -5.230469 C 6.246094 -5.230469 6.914062 -4.011719 6.914062 -3.117188 L 7.402344 -3.117188 L 7.402344 -7.875 L 6.914062 -7.875 C 6.914062 -6.992188 6.246094 -5.777344 5.394531 -5.777344 L 4.621094 -5.777344 L 4.621094 -9.972656 C 4.621094 -10.246094 4.710938 -10.335938 4.984375 -10.335938 L 6.65625 -10.335938 C 7.449219 -10.335938 8.054688 -9.773438 8.480469 -9.027344 C 8.9375 -8.269531 9.089844 -7.296875 9.089844 -7.296875 L 9.574219 -7.296875 L 9.484375 -10.820312 L 0.941406 -10.820312 L 0.941406 -10.335938 L 2.007812 -10.335938 C 2.28125 -10.335938 2.371094 -10.246094 2.371094 -9.972656 L 2.371094 -0.851562 C 2.371094 -0.578125 2.28125 -0.488281 2.007812 -0.488281 L 0.941406 -0.488281 Z M 0.941406 0 "/></g></g></g><g fill="#88c431" fill-opacity="1"><g transform="translate(104.894036, 194.812956)"><g><path d="M 4.621094 -6.019531 L 4.621094 -9.972656 C 4.621094 -10.246094 4.710938 -10.335938 4.984375 -10.335938 L 5.640625 -10.335938 C 6.777344 -10.335938 7.082031 -9.546875 7.082031 -8.269531 C 7.082031 -6.992188 6.777344 -6.019531 5.640625 -6.019531 Z M 0.941406 0 L 6.324219 0 L 6.324219 -0.488281 L 4.984375 -0.488281 C 4.710938 -0.488281 4.621094 -0.578125 4.621094 -0.851562 L 4.621094 -5.53125 L 5.472656 -5.53125 C 6.535156 -5.53125 6.929688 -4.679688 6.929688 -3.800781 L 6.929688 -1.914062 C 6.929688 -0.363281 7.796875 0.363281 9.042969 0.363281 C 10.503906 0.363281 10.851562 -0.972656 10.851562 -2.734375 L 10.367188 -2.734375 C 10.367188 -1.65625 10.183594 -0.488281 9.605469 -0.488281 C 9.332031 -0.488281 9.179688 -0.667969 9.179688 -1.125 L 9.179688 -2.8125 C 9.179688 -4.710938 8.148438 -5.367188 6.71875 -5.625 L 6.71875 -5.730469 C 8.300781 -5.914062 9.515625 -6.6875 9.515625 -8.148438 C 9.515625 -9.820312 8.027344 -10.820312 5.867188 -10.820312 L 0.941406 -10.820312 L 0.941406 -10.335938 L 2.007812 -10.335938 C 2.28125 -10.335938 2.371094 -10.246094 2.371094 -9.972656 L 2.371094 -0.851562 C 2.371094 -0.578125 2.28125 -0.488281 2.007812 -0.488281 L 0.941406 -0.488281 Z M 0.941406 0 "/></g></g></g><g fill="#88c431" fill-opacity="1"><g transform="translate(120.580785, 194.812956)"><g><path d="M 3.722656 -3.433594 L 5.152344 -7.613281 L 6.535156 -3.433594 Z M 0.667969 0 L 4.542969 0 L 4.542969 -0.488281 L 3.832031 -0.488281 C 3.328125 -0.488281 3.039062 -0.835938 3.039062 -1.171875 C 3.039062 -1.367188 3.101562 -1.671875 3.207031 -1.945312 L 3.527344 -2.871094 L 6.71875 -2.871094 L 7.203125 -1.414062 C 7.25 -1.277344 7.296875 -1.0625 7.296875 -0.972656 C 7.296875 -0.714844 7.128906 -0.488281 6.886719 -0.488281 L 5.792969 -0.488281 L 5.792969 0 L 11.125 0 L 11.125 -0.488281 L 10.519531 -0.488281 C 10.121094 -0.488281 9.804688 -0.730469 9.621094 -1.261719 L 6.367188 -11.097656 L 5.730469 -11.097656 L 2.523438 -1.71875 C 2.308594 -1.109375 1.839844 -0.488281 1.1875 -0.488281 L 0.667969 -0.488281 Z M 0.667969 0 "/></g></g></g><g fill="#88c431" fill-opacity="1"><g transform="translate(136.632313, 194.812956)"><g><path d="M 1.367188 -4.652344 L 1.460938 0.152344 L 1.929688 0.152344 L 2.007812 -0.335938 C 2.050781 -0.667969 2.1875 -0.851562 2.402344 -0.851562 C 2.597656 -0.851562 2.796875 -0.699219 3.191406 -0.394531 C 3.601562 -0.0625 4.300781 0.273438 5.273438 0.273438 C 7.601562 0.273438 8.664062 -1.351562 8.664062 -2.859375 C 8.664062 -3.875 8.132812 -4.925781 7.296875 -5.472656 L 4.027344 -7.585938 C 3.328125 -8.039062 2.675781 -8.632812 2.675781 -9.332031 C 2.675781 -10.183594 3.175781 -10.609375 4.257812 -10.609375 C 5.746094 -10.609375 7.097656 -8.96875 7.660156 -6.871094 L 8.148438 -6.871094 L 7.996094 -10.820312 L 7.507812 -10.820312 L 7.417969 -10.410156 C 7.386719 -10.214844 7.28125 -10.0625 7.082031 -10.0625 C 6.929688 -10.0625 6.734375 -10.183594 6.535156 -10.335938 C 6.230469 -10.546875 5.378906 -11.097656 4.378906 -11.097656 C 2.859375 -11.097656 1.398438 -10.273438 1.398438 -8.175781 C 1.398438 -6.777344 2.339844 -5.898438 3.101562 -5.410156 L 6.351562 -3.3125 C 6.960938 -2.917969 7.449219 -2.507812 7.449219 -1.945312 C 7.449219 -1.308594 7.1875 -0.210938 5.367188 -0.210938 C 3.632812 -0.210938 2.28125 -2.417969 1.855469 -4.652344 Z M 1.367188 -4.652344 "/></g></g></g></svg>